<svg xmlns="http://www.w3.org/2000/svg" xmlns:xlink="http://www.w3.org/1999/xlink" width="486.452" height="424.047" viewBox="0 0 486.452 424.047"><defs><style>.a,.c{fill:none;stroke:#29abe2;}.a{stroke-width:1.5px;}.b{opacity:0.5;}.c{stroke-miterlimit:10;}.d{opacity:0.27;}.e{fill:url(#c);}.f{fill:url(#d);}.g{fill:url(#e);}.h{fill:url(#f);}.i{fill:url(#g);}.j{fill:url(#h);}.k{fill:url(#i);}.l{fill:url(#j);}.m{fill:url(#k);}.n{fill:url(#l);}.o{fill:url(#m);}.p{fill:url(#n);}.q{fill:url(#o);}.r{fill:url(#p);}.s{fill:url(#q);}.t{fill:url(#r);}.u{fill:url(#s);}.v{fill:url(#t);}.w{fill:url(#u);}.x{fill:url(#v);}.y{fill:url(#w);}.z{fill:url(#x);}.aa{fill:url(#y);}.ab{fill:url(#z);}.ac{fill:url(#aa);}.ad{fill:url(#ab);}.ae{fill:url(#ac);}.af{fill:url(#ad);}.ag{fill:url(#ae);}.ah{fill:url(#af);}.ai{fill:url(#ag);}.aj{fill:url(#ah);}.ak{fill:url(#ai);}.al{fill:url(#aj);}.am{fill:url(#ak);}.an{fill:url(#al);}.ao{fill:url(#am);}.ap{fill:url(#an);}.aq{fill:url(#ao);}.ar{fill:url(#ap);}.as,.at{fill:#4e5fcb;stroke:#7790df;}.as{opacity:0.3;}.at{opacity:0.18;}.au{fill:#29abe2;}.av{opacity:0.33;fill:url(#aq);}.aw{fill:url(#ar);}.ax{fill:url(#as);}.ay{fill:url(#at);}.az{fill:url(#au);}.ba{fill:url(#av);}.bb{fill:url(#aw);}.bc{fill:url(#ax);}.bd{fill:url(#ay);}.be{fill:url(#az);}.bf{fill:url(#ba);}.bg{fill:url(#bb);}.bh{fill:url(#bc);}.bi{fill:url(#bd);}.bj{fill:url(#be);}.bk{fill:url(#bf);}.bl{opacity:0.32;}.bm{fill:url(#bg);}.bn{fill:url(#bh);}.bo{fill:url(#bi);}.bp{fill:url(#bj);}.bq{fill:url(#bk);}.br{filter:url(#a);}</style><filter id="a" x="139.48" y="0" width="346.972" height="424.047" filterUnits="userSpaceOnUse"><feOffset input="SourceAlpha"/><feGaussianBlur stdDeviation="5" result="b"/><feFlood flood-color="#c4ceeb"/><feComposite operator="in" in2="b"/><feComposite in="SourceGraphic"/></filter><radialGradient id="c" cx="-566.334" cy="-995.935" r="520.101" gradientTransform="matrix(-0.045, 0, 0, 0.002, -754.774, -1154.66)" gradientUnits="userSpaceOnUse"><stop offset="0" stop-color="#fff"/><stop offset="0.24" stop-color="#fff" stop-opacity="0.714"/><stop offset="0.514" stop-color="#fff" stop-opacity="0.412"/><stop offset="0.741" stop-color="#fff" stop-opacity="0.188"/><stop offset="0.909" stop-color="#fff" stop-opacity="0.051"/><stop offset="0.999" stop-color="#fff" stop-opacity="0"/></radialGradient><radialGradient id="d" cx="-1928.418" cy="-102.893" r="23.625" gradientTransform="matrix(-0.707, 0.707, 0.034, 0.034, -3660.646, 1214.12)" xlink:href="#c"/><radialGradient id="e" cx="-2025.315" cy="-2269.703" r="23.625" gradientTransform="matrix(-0.707, -0.707, -0.034, 0.034, -3920.623, -3980.152)" xlink:href="#c"/><radialGradient id="f" cx="1.121" cy="24.677" r="1.073" gradientTransform="matrix(0, 22.013, 1.061, 0, -25.062, 0)" xlink:href="#c"/><radialGradient id="g" cx="11.475" cy="12.223" r="11.392" gradientTransform="matrix(-1, 0, 0, 1, 22.949, 0)" gradientUnits="userSpaceOnUse"><stop offset="0" stop-color="#fff"/><stop offset="0.102" stop-color="#fff" stop-opacity="0.851"/><stop offset="0.289" stop-color="#fff" stop-opacity="0.596"/><stop offset="0.469" stop-color="#fff" stop-opacity="0.384"/><stop offset="0.634" stop-color="#fff" stop-opacity="0.216"/><stop offset="0.782" stop-color="#fff" stop-opacity="0.098"/><stop offset="0.909" stop-color="#fff" stop-opacity="0.027"/><stop offset="0.999" stop-color="#fff" stop-opacity="0"/></radialGradient><radialGradient id="h" cx="24.677" cy="1.121" r="520.044" gradientTransform="matrix(-0.045, 0, 0, 0.002, 25.798, 1.119)" xlink:href="#c"/><radialGradient id="i" cx="-2048.841" cy="-543.121" r="23.625" gradientTransform="matrix(-0.707, 0.707, 0.034, 0.034, -3875.112, 797.737)" xlink:href="#c"/><radialGradient id="j" cx="-2187.35" cy="-2863.373" r="23.625" gradientTransform="matrix(-0.707, -0.707, -0.034, 0.034, -4247.246, -4766.114)" xlink:href="#c"/><radialGradient id="k" cx="1188.444" cy="37947.362" r="1.073" gradientTransform="matrix(0, 22.016, 1.061, 0, -39017.228, 17179.039)" xlink:href="#c"/><radialGradient id="l" cx="11.875" cy="11.2" r="11.392" gradientTransform="matrix(0.973, -0.231, -0.231, -0.973, 2.904, 24.836)" xlink:href="#g"/><radialGradient id="m" cx="24.677" cy="1.121" r="520.044" gradientTransform="matrix(-0.045, 0, 0, 0.002, 25.798, 1.119)" xlink:href="#c"/><radialGradient id="n" cx="-1276.628" cy="-1405.426" r="23.625" gradientTransform="matrix(-0.707, 0.707, 0.034, 0.034, -2392.856, -678.264)" xlink:href="#c"/><radialGradient id="o" cx="-1460.055" cy="-3201.421" r="23.625" gradientTransform="matrix(-0.707, -0.707, -0.034, 0.034, -2885.52, -4568.045)" xlink:href="#c"/><radialGradient id="p" cx="1.121" cy="24.677" r="1.073" gradientTransform="matrix(0, 22.013, 1.061, 0, -25.062, 0)" xlink:href="#c"/><radialGradient id="q" cx="11.384" cy="11.307" r="11.392" gradientTransform="matrix(0.385, -0.923, -0.923, -0.385, 17.438, 26.166)" xlink:href="#g"/><radialGradient id="r" cx="24.677" cy="1.121" r="520.042" gradientTransform="matrix(-0.045, 0, 0, 0.002, 25.798, 1.119)" xlink:href="#c"/><radialGradient id="s" cx="-1331.215" cy="-313.75" r="23.625" gradientTransform="matrix(-0.707, 0.707, 0.034, 0.034, -2530.818, 571.454)" xlink:href="#c"/><radialGradient id="t" cx="-1428.965" cy="-2124.97" r="23.625" gradientTransform="matrix(-0.707, -0.707, -0.034, 0.034, -2792.807, -3351.507)" xlink:href="#c"/><radialGradient id="u" cx="1005.884" cy="30235.498" r="1.074" gradientTransform="matrix(0, 22.003, 1.061, 0, -31043.918, 11858.587)" xlink:href="#c"/><radialGradient id="v" cx="11.574" cy="11.205" r="11.392" gradientTransform="matrix(0.707, -0.707, -0.707, -0.707, 11.313, 27.312)" xlink:href="#g"/><radialGradient id="w" cx="-209.872" cy="-1595.305" r="520.101" gradientTransform="matrix(-0.045, 0, 0, 0.002, -321.398, -1801.385)" xlink:href="#c"/><radialGradient id="x" cx="-1134.009" cy="-1054.197" r="23.625" gradientTransform="matrix(-0.707, 0.707, 0.034, 0.034, -2131.968, -387.193)" xlink:href="#c"/><radialGradient id="y" cx="-1281.452" cy="-2642.042" r="23.625" gradientTransform="matrix(-0.707, -0.707, -0.034, 0.034, -2527.748, -3823.295)" xlink:href="#c"/><radialGradient id="z" cx="1866.315" cy="26260.782" r="1.073" gradientTransform="matrix(0, 22.015, 1.061, 0, -25863.842, -11560.01)" xlink:href="#c"/><radialGradient id="aa" cx="11.475" cy="12.223" r="11.392" xlink:href="#g"/><radialGradient id="ab" cx="-349.512" cy="-1222.192" r="520.097" gradientTransform="matrix(-0.045, 0, 0, 0.002, -528.103, -1380.108)" xlink:href="#c"/><radialGradient id="ac" cx="-1852.941" cy="-143.917" r="23.625" gradientTransform="matrix(-0.707, 0.707, 0.034, 0.034, -3530.41, 1121.54)" xlink:href="#c"/><radialGradient id="ad" cx="-1964.338" cy="-2640.132" r="23.625" gradientTransform="matrix(-0.707, -0.707, -0.034, 0.034, -3829.14, -4294.408)" xlink:href="#c"/><radialGradient id="ae" cx="1.121" cy="24.677" r="1.073" gradientTransform="matrix(0, 22.013, 1.061, 0, -25.062, 0)" xlink:href="#c"/><radialGradient id="af" cx="11.475" cy="12.223" r="11.392" xlink:href="#g"/><radialGradient id="ag" cx="49.561" cy="2.252" r="1044.409" gradientTransform="matrix(-0.045, 0, 0, 0.002, 51.812, 2.247)" xlink:href="#c"/><radialGradient id="ah" cx="-1257.044" cy="-669.863" r="47.447" gradientTransform="matrix(-0.707, 0.707, 0.034, 0.034, -2381.915, 122.569)" xlink:href="#c"/><radialGradient id="ai" cx="-1383.816" cy="-2425.819" r="47.447" gradientTransform="matrix(-0.707, -0.707, -0.034, 0.034, -2719.616, -3658.883)" xlink:href="#c"/><radialGradient id="aj" cx="2.252" cy="49.561" r="2.156" gradientTransform="matrix(0, 22.012, 1.061, 0, -50.332, 0)" xlink:href="#c"/><radialGradient id="ak" cx="23.045" cy="24.549" r="22.879" gradientTransform="matrix(-1, 0, 0, 1, 46.09, 0)" xlink:href="#g"/><radialGradient id="al" cx="24.677" cy="1.121" r="520.044" gradientTransform="matrix(-0.045, 0, 0, 0.002, 25.798, 1.119)" xlink:href="#c"/><radialGradient id="am" cx="-1663.859" cy="-879.678" r="23.624" gradientTransform="matrix(-0.707, 0.707, 0.034, 0.034, -3147.219, 173.763)" xlink:href="#c"/><radialGradient id="an" cx="-1825" cy="-3163.103" r="23.624" gradientTransform="matrix(-0.707, -0.707, -0.034, 0.034, -3579.884, -4778.447)" xlink:href="#c"/><radialGradient id="ao" cx="1901.505" cy="37208.337" r="1.073" gradientTransform="matrix(0, 22.015, 1.061, 0, -37479.795, -27.972)" xlink:href="#c"/><radialGradient id="ap" cx="11.875" cy="11.2" r="11.392" gradientTransform="matrix(0.973, -0.231, -0.231, -0.973, 2.904, 24.837)" xlink:href="#g"/><linearGradient id="aq" x1="0.927" y1="0.5" x2="0.062" y2="0.5" gradientUnits="objectBoundingBox"><stop offset="0" stop-color="#072254" stop-opacity="0"/><stop offset="0.154" stop-color="#384d75" stop-opacity="0.196"/><stop offset="0.382" stop-color="#7b89a4" stop-opacity="0.463"/><stop offset="0.589" stop-color="#809fdc" stop-opacity="0.675"/><stop offset="0.768" stop-color="#a8bbe1" stop-opacity="0.827"/><stop offset="0.911" stop-color="#bec8f1" stop-opacity="0.922"/><stop offset="1" stop-color="#dfdff6" stop-opacity="0.957"/></linearGradient><radialGradient id="ar" cx="24.677" cy="1.121" r="520.044" gradientTransform="matrix(-0.045, 0, 0, 0.002, 25.798, 1.119)" xlink:href="#c"/><radialGradient id="as" cx="-2126.52" cy="-447.98" r="23.625" gradientTransform="matrix(-0.707, 0.707, 0.034, 0.034, -4042.352, 973.585)" xlink:href="#c"/><radialGradient id="at" cx="-2276.958" cy="-3324.051" r="23.625" gradientTransform="matrix(-0.707, -0.707, -0.034, 0.034, -4446.196, -5270.286)" xlink:href="#c"/><radialGradient id="au" cx="1570.069" cy="46708.275" r="1.074" gradientTransform="matrix(0, 22.003, 1.061, 0, -47940.304, 17964.977)" xlink:href="#c"/><radialGradient id="av" cx="11.918" cy="11.212" r="11.392" gradientTransform="matrix(0.988, -0.153, -0.153, -0.988, 1.853, 24.114)" xlink:href="#g"/><radialGradient id="aw" cx="24.677" cy="1.121" r="520.044" gradientTransform="matrix(-0.045, 0, 0, 0.002, 25.798, 1.119)" xlink:href="#c"/><radialGradient id="ax" cx="1.121" cy="24.677" r="1.073" gradientTransform="matrix(0, -22.013, -1.061, 0, 27.315, 49.355)" xlink:href="#c"/><radialGradient id="ay" cx="24.677" cy="1.121" r="520.063" gradientTransform="matrix(0.045, 0, 0, -0.002, 23.556, 1.123)" xlink:href="#c"/><radialGradient id="az" cx="1.121" cy="24.677" r="1.073" gradientTransform="matrix(0, 22.013, 1.061, 0, -25.062, 0)" xlink:href="#c"/><radialGradient id="ba" cx="11.915" cy="11.212" r="11.392" gradientTransform="matrix(0.988, -0.157, -0.157, -0.988, 1.905, 24.153)" xlink:href="#g"/><radialGradient id="bb" cx="-324.763" cy="-2064.403" r="520.101" gradientTransform="matrix(-0.045, 0, 0, 0.002, -491.47, -2331.036)" xlink:href="#c"/><radialGradient id="bc" cx="-1688.067" cy="-1253.913" r="23.625" gradientTransform="matrix(-0.707, 0.707, 0.034, 0.034, -3181.691, -224.944)" xlink:href="#c"/><radialGradient id="bd" cx="-1880.83" cy="-3589.178" r="23.625" gradientTransform="matrix(-0.707, -0.707, -0.034, 0.034, -3699.489, -5290.095)" xlink:href="#c"/><radialGradient id="be" cx="2395.224" cy="37733.778" r="1.074" gradientTransform="matrix(0, 22.003, 1.061, 0, -37463.883, -10275.844)" xlink:href="#c"/><radialGradient id="bf" cx="11.475" cy="12.223" r="11.392" xlink:href="#g"/><radialGradient id="bg" cx="24.677" cy="1.121" r="520.043" gradientTransform="matrix(-0.045, 0, 0, 0.002, 25.798, 1.119)" xlink:href="#c"/><radialGradient id="bh" cx="1.121" cy="24.677" r="1.073" gradientTransform="matrix(0, -22.013, -1.061, 0, 27.315, 49.354)" xlink:href="#c"/><radialGradient id="bi" cx="24.677" cy="1.121" r="520.063" gradientTransform="matrix(0.045, 0, 0, -0.002, 23.556, 1.123)" xlink:href="#c"/><radialGradient id="bj" cx="1.121" cy="24.677" r="1.073" gradientTransform="matrix(0, 22.013, 1.061, 0, -25.062, 0)" xlink:href="#c"/><radialGradient id="bk" cx="11.913" cy="11.211" r="11.392" gradientTransform="matrix(0.987, -0.161, -0.161, -0.987, 1.956, 24.19)" xlink:href="#g"/></defs><g transform="translate(-89.361 15.82)"><g transform="translate(0 0)"><g class="br" transform="matrix(1, 0, 0, 1, 89.36, -15.82)"><path class="a" d="M114.8,512.932s31.1-45.307,31.1-58.112V436.528s-44.511,15.243-53.656,15.243-18.9-10.975-23.78-19.511,7.223-17.269,1.673-22.82-11.1-5.756-11.1-10.279,6.169-8.224,0-9.869-8.918-8.635-8.918-13.569,7.055-2.814,0-9.869-20.688-9.047-20.688-16.038,17.27-38.241,17.27-49.755-9.457-14.8-9.457-22.615S38.308,138.047,156,122.338c108.1-14.427,151.979,56.637,151.979,123.525s-33.807,118.871-45.8,130.868-3.636,47.257-3.636,47.257l14.817,3.841a61.126,61.126,0,0,1,37.287,28.08l33.687,57.023Z" transform="translate(125.81 -104.63)"/></g><g class="b" transform="translate(244.592 62.016)"><path class="c" d="M187.279,170.276,278.072,210.7l-6.486,79.917,32.432,39.786-28.894,50.712,4.717,35.97L217.2,439.577l-24.919-24.907,30.95-51.83-45.258-3.786,3.249-74.825L162.2,265.252Z" transform="translate(-154.387 -170.276)"/><path class="c" d="M265.929,290.621l3.538,90.5-27.378-16.205,32.095,52.175-56.608-54.25,48.353-72.218-38.91-16.563,45.4-63.353-79.564,32.872-11.229-73.3" transform="translate(-148.73 -170.276)"/><path class="c" d="M219.513,250.838l36.309-21.675,34.168,30.481-51.451,10.171,42.009,78.611,9.443-88.782" transform="translate(-211.7 -155.862)"/><line class="c" x2="87.558" y2="2.42" transform="translate(37.897 244.394)"/><line class="c" y1="74.293" x2="23.84" transform="translate(93.36 120.345)"/><path class="c" d="M234.243,261.82l-26.838,53.394,23.589,21.431,8.649,19.727,36.609-15.941,24.513,2.075" transform="translate(-207.406 -147.868)"/></g><g class="b" transform="translate(244.592 62.016)"><path class="c" d="M187.279,170.276,278.072,210.7l-6.486,79.917,32.432,39.786-28.894,50.712,4.717,35.97L217.2,439.577l-24.919-24.907,30.95-51.83-45.258-3.786,3.249-74.825L162.2,265.252Z" transform="translate(-154.387 -170.276)"/><path class="c" d="M265.929,290.621l3.538,90.5-27.378-16.205,32.095,52.175-56.608-54.25,48.353-72.218-38.91-16.563,45.4-63.353-79.564,32.872-11.229-73.3" transform="translate(-148.73 -170.276)"/><path class="c" d="M219.513,250.838l36.309-21.675,34.168,30.481-51.451,10.171,42.009,78.611,9.443-88.782" transform="translate(-211.7 -155.862)"/><line class="c" x2="87.558" y2="2.42" transform="translate(37.897 244.394)"/><line class="c" y1="74.293" x2="23.84" transform="translate(93.36 120.345)"/><path class="c" d="M234.243,261.82l-26.838,53.394,23.589,21.431,8.649,19.727,36.609-15.941,24.513,2.075" transform="translate(-207.406 -147.868)"/></g><g class="d" transform="translate(264.036 111.749)"><g transform="translate(0)"><path class="e" d="M227.137,230.275c0,.619,11.049,1.12,24.676,1.12s24.678-.5,24.678-1.12-11.049-1.122-24.678-1.122S227.137,229.655,227.137,230.275Z" transform="translate(-227.137 -205.597)"/><path class="f" d="M232.948,250.938c.438.438,8.605-7.019,18.242-16.656s17.094-17.805,16.656-18.242-8.605,7.019-18.242,16.656S232.511,250.5,232.948,250.938Z" transform="translate(-225.72 -208.811)"/><path class="g" d="M232.948,216.04c-.437.437,7.021,8.605,16.656,18.242s17.805,17.094,18.242,16.656-7.019-8.605-16.656-18.242S233.386,215.6,232.948,216.04Z" transform="translate(-225.72 -208.811)"/><ellipse class="h" cx="1.121" cy="24.677" rx="1.121" ry="24.677" transform="translate(23.556)"/></g><ellipse class="i" cx="11.735" cy="11.735" rx="11.735" ry="11.735" transform="translate(12.942 12.39)"/></g><g class="d" transform="translate(243.503 227.225)"><ellipse class="j" cx="24.677" cy="1.121" rx="24.677" ry="1.121" transform="translate(0 23.556)"/><path class="k" d="M249.443,343.707c.438.438,8.605-7.019,18.242-16.656s17.094-17.8,16.656-18.242-8.605,7.019-18.242,16.656S249,343.269,249.443,343.707Z" transform="translate(-242.215 -301.58)"/><path class="l" d="M249.443,308.809c-.438.438,7.019,8.605,16.656,18.242s17.805,17.094,18.242,16.656-7.019-8.605-16.656-18.242S249.881,308.37,249.443,308.809Z" transform="translate(-242.215 -301.58)"/><path class="m" d="M263.676,352.353c.62,0,1.122-11.049,1.122-24.678S264.3,303,263.676,303s-1.12,11.049-1.12,24.678S263.058,352.353,263.676,352.353Z" transform="translate(-238.999 -302.998)"/><ellipse class="n" cx="11.735" cy="11.735" rx="11.735" ry="11.735" transform="matrix(-0.973, -0.231, 0.231, -0.973, 33.388, 38.251)"/></g><g class="d" transform="translate(345.369 284.704)"><g transform="translate(0 0)"><ellipse class="o" cx="24.677" cy="1.121" rx="24.677" ry="1.121" transform="translate(0 23.556)"/><path class="p" d="M167.608,389.883c.438.438,8.605-7.019,18.242-16.656s17.094-17.8,16.656-18.242S193.9,362,184.264,371.641,167.169,389.446,167.608,389.883Z" transform="translate(-160.38 -347.757)"/><path class="q" d="M167.608,354.985c-.438.438,7.019,8.605,16.656,18.242s17.805,17.094,18.242,16.656-7.019-8.605-16.656-18.242S168.046,354.546,167.608,354.985Z" transform="translate(-160.38 -347.757)"/><ellipse class="r" cx="1.121" cy="24.677" rx="1.121" ry="24.677" transform="translate(23.556)"/></g><ellipse class="s" cx="11.735" cy="11.735" rx="11.735" ry="11.735" transform="translate(18.363 39.472) rotate(-112.637)"/></g><g class="d" transform="translate(343.6 78.32)"><g transform="translate(0)"><ellipse class="t" cx="24.677" cy="1.121" rx="24.677" ry="1.121" transform="translate(0 23.555)"/><path class="u" d="M169.029,224.082c.438.438,8.605-7.019,18.242-16.656s17.094-17.8,16.656-18.242-8.605,7.019-18.242,16.656S168.59,223.644,169.029,224.082Z" transform="translate(-161.801 -181.956)"/><path class="v" d="M169.029,189.184c-.438.438,7.019,8.605,16.656,18.242s17.8,17.094,18.242,16.656-7.019-8.605-16.656-18.242S169.467,188.745,169.029,189.184Z" transform="translate(-161.801 -181.956)"/><path class="w" d="M183.264,232.728c.62,0,1.122-11.049,1.122-24.678s-.5-24.676-1.122-24.676-1.122,11.047-1.122,24.676S182.645,232.728,183.264,232.728Z" transform="translate(-158.587 -183.374)"/></g><circle class="x" cx="11.735" cy="11.735" r="11.735" transform="translate(24.677 40.72) rotate(-135)"/></g><g class="d" transform="translate(369.546 198.023)"><g transform="translate(0)"><path class="y" d="M142.375,299.584c0,.619,11.049,1.12,24.678,1.12s24.676-.5,24.676-1.12-11.049-1.122-24.676-1.122S142.375,298.964,142.375,299.584Z" transform="translate(-142.375 -274.906)"/><path class="z" d="M148.185,320.247c.437.437,8.605-7.019,18.242-16.658s17.093-17.8,16.656-18.241-8.605,7.019-18.242,16.656S147.747,319.809,148.185,320.247Z" transform="translate(-140.956 -278.12)"/><path class="aa" d="M148.185,285.349c-.438.437,7.019,8.6,16.656,18.241s17.8,17.094,18.242,16.658-7.021-8.605-16.656-18.242S148.622,284.91,148.185,285.349Z" transform="translate(-140.956 -278.12)"/><path class="ab" d="M162.421,328.892c.619,0,1.12-11.049,1.12-24.676s-.5-24.678-1.12-24.678-1.122,11.049-1.122,24.678S161.8,328.892,162.421,328.892Z" transform="translate(-137.743 -279.538)"/></g><ellipse class="ac" cx="11.735" cy="11.735" rx="11.735" ry="11.735" transform="translate(12.942 12.39)"/></g><g class="d" transform="translate(264.036 111.192)"><g transform="translate(0)"><path class="ad" d="M227.137,229.826c0,.62,11.049,1.122,24.676,1.122s24.678-.5,24.678-1.122-11.049-1.12-24.678-1.12S227.137,229.208,227.137,229.826Z" transform="translate(-227.137 -205.15)"/><path class="ae" d="M232.948,250.49c.438.438,8.605-7.019,18.242-16.656s17.094-17.8,16.656-18.242-8.605,7.021-18.242,16.658S232.511,250.053,232.948,250.49Z" transform="translate(-225.72 -208.364)"/><path class="af" d="M232.948,215.592c-.437.438,7.021,8.605,16.656,18.242s17.805,17.094,18.242,16.656-7.019-8.6-16.656-18.241S233.386,215.155,232.948,215.592Z" transform="translate(-225.72 -208.364)"/><ellipse class="ag" cx="1.121" cy="24.677" rx="1.121" ry="24.677" transform="translate(23.556)"/></g><ellipse class="ah" cx="11.735" cy="11.735" rx="11.735" ry="11.735" transform="translate(12.942 12.39)"/></g><g class="d" transform="translate(312.23 133.909)"><g transform="translate(0)"><ellipse class="ai" cx="49.561" cy="2.252" rx="49.561" ry="2.252" transform="translate(0 47.309)"/><path class="aj" d="M160.107,309.791c.879.879,17.281-14.1,36.636-33.453S231.076,240.58,230.2,239.7s-17.282,14.1-36.637,33.452S159.227,308.911,160.107,309.791Z" transform="translate(-145.591 -225.185)"/><path class="ak" d="M160.107,239.7c-.88.879,14.1,17.281,33.452,36.636s35.757,34.332,36.637,33.453-14.1-17.282-33.453-36.637S160.986,238.821,160.107,239.7Z" transform="translate(-145.591 -225.185)"/><ellipse class="al" cx="2.252" cy="49.561" rx="2.252" ry="49.561" transform="translate(47.309)"/></g><ellipse class="am" cx="23.568" cy="23.568" rx="23.568" ry="23.568" transform="translate(25.993 24.884)"/></g><g class="d" transform="translate(288.761 231.012)"><ellipse class="an" cx="24.677" cy="1.121" rx="24.677" ry="1.121" transform="translate(0 23.556)"/><path class="ao" d="M213.085,346.749c.438.437,8.605-7.02,18.242-16.658s17.094-17.8,16.656-18.242-8.6,7.021-18.241,16.658S212.648,346.311,213.085,346.749Z" transform="translate(-205.857 -304.622)"/><path class="ap" d="M213.085,311.85c-.437.438,7.021,8.605,16.658,18.242s17.8,17.094,18.241,16.658-7.019-8.605-16.656-18.242S213.523,311.413,213.085,311.85Z" transform="translate(-205.857 -304.622)"/><path class="aq" d="M227.318,355.394c.62,0,1.122-11.049,1.122-24.678s-.5-24.676-1.122-24.676-1.12,11.049-1.12,24.676S226.7,355.394,227.318,355.394Z" transform="translate(-202.642 -306.04)"/><ellipse class="ar" cx="11.735" cy="11.735" rx="11.735" ry="11.735" transform="matrix(-0.973, -0.231, 0.231, -0.973, 33.388, 38.25)"/></g><g transform="translate(89.861 29.238)"><path class="as" d="M321,468.45l92.617-24.684c1.713-.457,3.1-3.138,3.1-5.989L416.5,176.886c0-2.851-1.389-5.564-3.1-6.061l-92.416-26.816c-1.709-.5-3.094,1.882-3.094,5.31v313.75C317.895,466.5,319.284,468.907,321,468.45Z" transform="translate(-306.156 -143.944)"/><path class="at" d="M331.7,465.213l91.073-24.273c1.684-.448,3.048-3.085,3.046-5.889l-.2-256.54c0-2.8-1.367-5.472-3.047-5.96l-90.875-26.369c-1.68-.487-3.043,1.851-3.043,5.222V459.92C328.65,463.293,330.015,465.661,331.7,465.213Z" transform="translate(-328.65 -143.411)"/><g transform="translate(28.048 54.258)"><g transform="translate(0 1.258)"><path class="au" d="M337.8,275.636l-.013,2.883,6.416.418.013-2.883Z" transform="translate(-286.463 -167.225)"/><path class="au" d="M338.091,284.226l-.109,2.853,6.351,3.469.11-2.854Z" transform="translate(-286.937 -165.123)"/><path class="au" d="M338.751,292.678l-.2,2.779,6.184,6.464.2-2.778Z" transform="translate(-288.133 -163.054)"/><path class="au" d="M339.766,300.858l-.3,2.659,5.918,9.356.3-2.659Z" transform="translate(-290.033 -161.052)"/><path class="au" d="M341.121,308.634l-.382,2.5,5.558,12.1.382-2.5Z" transform="translate(-292.606 -159.148)"/><path class="au" d="M342.793,315.882l-.463,2.3,5.109,14.647.463-2.3Z" transform="translate(-295.81 -157.374)"/><path class="au" d="M344.756,322.486l-.536,2.057L348.8,341.5l.536-2.057Z" transform="translate(-299.595 -155.758)"/><path class="au" d="M346.979,328.341l-.6,1.786,3.973,19,.6-1.785Z" transform="translate(-303.9 -154.325)"/><path class="au" d="M349.425,333.353l-.655,1.485,3.306,20.744.655-1.485Z" transform="translate(-308.656 -153.098)"/><path class="au" d="M352.057,337.441l-.7,1.162,2.585,22.152.7-1.162Z" transform="translate(-313.787 -152.097)"/><path class="au" d="M354.831,340.542l-.733.819,1.824,23.206.733-.819Z" transform="translate(-319.211 -151.338)"/><path class="au" d="M357.7,342.6l-.754.464,1.032,23.888.754-.464Z" transform="translate(-324.842 -150.834)"/><path class="au" d="M360.629,343.594l-.764.1.225,24.189.764-.1Z" transform="translate(-330.589 -150.591)"/><path class="au" d="M363.675,343.55l-.761-.263-.586,24.1.761.263Z" transform="translate(-336.475 -150.666)"/><path class="au" d="M366.722,342.439l-.746-.624-1.388,23.631.746.624Z" transform="translate(-342.336 -151.026)"/><path class="au" d="M369.678,340.26l-.72-.974-2.167,22.781.719.974Z" transform="translate(-348.034 -151.646)"/><path class="au" d="M372.494,337.047l-.681-1.309L368.9,357.305l.681,1.309Z" transform="translate(-353.477 -152.514)"/><path class="au" d="M375.126,332.851l-.632-1.622-3.61,20.009.632,1.622Z" transform="translate(-358.578 -153.618)"/><path class="au" d="M377.533,327.741l-.572-1.91-4.251,18.13.573,1.91Z" transform="translate(-363.257 -154.939)"/><path class="au" d="M379.675,321.8l-.5-2.168-4.824,15.961.5,2.168Z" transform="translate(-367.437 -156.457)"/><path class="au" d="M381.518,315.115l-.427-2.39-5.319,13.538.428,2.39Z" transform="translate(-371.052 -158.147)"/><path class="au" d="M383.032,307.8l-.344-2.574-5.73,10.9.344,2.575Z" transform="translate(-374.045 -159.982)"/><path class="au" d="M384.194,299.973l-.255-2.718-6.048,8.083.255,2.718Z" transform="translate(-376.368 -161.934)"/><path class="au" d="M384.985,291.755l-.163-2.818-6.27,5.139.162,2.818Z" transform="translate(-377.982 -163.97)"/><path class="au" d="M385.392,283.279l-.067-2.872-6.392,2.113.067,2.872Z" transform="translate(-378.864 -166.058)"/><path class="au" d="M385.415,274.866l.03-2.881-6.412-.946L379,273.92Z" transform="translate(-379.003 -168.351)"/><path class="au" d="M358.058,212.592l.76.326.725-24.048-.76-.326Z" transform="translate(-327.028 -188.543)"/><path class="au" d="M355.177,213.853l.743.685,1.524-23.511-.743-.685Z" transform="translate(-321.342 -188.103)"/><path class="au" d="M352.388,216.1l.714,1.033,2.3-22.6-.714-1.033Z" transform="translate(-315.829 -187.329)"/><path class="au" d="M349.737,219.3l.673,1.364,3.036-21.322-.673-1.364Z" transform="translate(-310.576 -186.233)"/><path class="au" d="M347.266,223.4l.622,1.674,3.725-19.707-.622-1.674Z" transform="translate(-305.667 -184.834)"/><path class="au" d="M345.015,228.341l.561,1.957,4.355-17.776-.562-1.957Z" transform="translate(-301.181 -183.153)"/><path class="au" d="M343.019,234.033l.491,2.208,4.915-15.561-.491-2.209Z" transform="translate(-297.19 -181.217)"/><path class="au" d="M341.31,240.39l.414,2.425,5.4-13.1-.414-2.425Z" transform="translate(-293.758 -179.058)"/><path class="au" d="M339.915,247.311l.329,2.6,5.791-10.423-.329-2.6Z" transform="translate(-290.938 -176.71)"/><path class="au" d="M338.858,254.684l.24,2.738,6.094-7.583-.24-2.738Z" transform="translate(-288.778 -174.21)"/><path class="au" d="M338.154,262.392l.146,2.83,6.3-4.622-.146-2.83Z" transform="translate(-287.309 -171.599)"/><path class="au" d="M337.816,270.311l.05,2.877,6.4-1.587-.05-2.877Z" transform="translate(-286.558 -168.917)"/></g><g transform="translate(0 2.779)"><path class="au" d="M337.8,276.857l-.013,2.883,6.416.418.013-2.883Z" transform="translate(-286.463 -168.447)"/><path class="au" d="M338.091,285.448l-.11,2.854,6.35,3.469.11-2.854Z" transform="translate(-286.937 -166.345)"/><path class="au" d="M338.751,293.9l-.2,2.779,6.184,6.464.2-2.779Z" transform="translate(-288.134 -164.276)"/><path class="au" d="M339.766,302.08l-.3,2.659,5.918,9.356.3-2.659Z" transform="translate(-290.033 -162.274)"/><path class="au" d="M341.121,309.856l-.382,2.5,5.558,12.1.382-2.5Z" transform="translate(-292.606 -160.37)"/><path class="au" d="M342.793,317.1l-.463,2.3,5.108,14.647.463-2.3Z" transform="translate(-295.81 -158.596)"/><path class="au" d="M344.756,323.708l-.536,2.057,4.578,16.962.536-2.057Z" transform="translate(-299.595 -156.98)"/><path class="au" d="M346.979,329.563l-.6,1.785,3.974,19,.6-1.786Z" transform="translate(-303.9 -155.546)"/><path class="au" d="M349.425,334.575l-.655,1.485,3.306,20.744.655-1.486Z" transform="translate(-308.656 -154.32)"/><path class="au" d="M352.057,338.663l-.7,1.162,2.585,22.152.7-1.162Z" transform="translate(-313.787 -153.319)"/><path class="au" d="M354.831,341.763l-.733.819,1.824,23.206.733-.82Z" transform="translate(-319.211 -152.56)"/><path class="au" d="M357.7,343.825l-.754.464,1.032,23.888.755-.464Z" transform="translate(-324.842 -152.055)"/><path class="au" d="M360.629,344.816l-.764.1.225,24.188.764-.1Z" transform="translate(-330.589 -151.813)"/><path class="au" d="M363.675,344.772l-.761-.263-.586,24.1.761.263Z" transform="translate(-336.475 -151.888)"/><path class="au" d="M366.722,343.661l-.746-.624-1.388,23.631.746.624Z" transform="translate(-342.336 -152.248)"/><path class="au" d="M369.678,341.482l-.72-.974-2.167,22.781.719.974Z" transform="translate(-348.034 -152.868)"/><path class="au" d="M372.494,338.269l-.681-1.309L368.9,358.527l.681,1.309Z" transform="translate(-353.477 -153.736)"/><path class="au" d="M375.127,334.073l-.632-1.622-3.611,20.008.632,1.622Z" transform="translate(-358.578 -154.84)"/><path class="au" d="M377.533,328.963l-.573-1.91-4.251,18.13.573,1.91Z" transform="translate(-363.256 -156.161)"/><path class="au" d="M379.675,323.019l-.5-2.168-4.824,15.961.5,2.168Z" transform="translate(-367.437 -157.679)"/><path class="au" d="M381.518,316.337l-.428-2.39-5.319,13.538.428,2.39Z" transform="translate(-371.052 -159.369)"/><path class="au" d="M383.032,309.023l-.344-2.575-5.73,10.9.344,2.575Z" transform="translate(-374.045 -161.204)"/><path class="au" d="M384.194,301.194l-.255-2.718-6.048,8.083.255,2.718Z" transform="translate(-376.368 -163.156)"/><path class="au" d="M384.985,292.976l-.162-2.818-6.27,5.139.162,2.818Z" transform="translate(-377.982 -165.191)"/><path class="au" d="M385.392,284.5l-.067-2.872-6.392,2.114.067,2.872Z" transform="translate(-378.864 -167.28)"/><path class="au" d="M385.415,276.088l.03-2.881-6.412-.946-.03,2.881Z" transform="translate(-379.003 -169.572)"/><path class="au" d="M358.058,213.813l.76.326.725-24.048-.76-.326Z" transform="translate(-327.028 -189.765)"/><path class="au" d="M355.176,215.075l.743.685,1.524-23.511-.743-.685Z" transform="translate(-321.342 -189.325)"/><path class="au" d="M352.388,217.324l.714,1.033,2.3-22.6-.714-1.033Z" transform="translate(-315.829 -188.551)"/><path class="au" d="M349.737,220.525l.674,1.364,3.036-21.322-.674-1.364Z" transform="translate(-310.576 -187.455)"/><path class="au" d="M347.266,224.627l.623,1.674,3.725-19.707-.622-1.674Z" transform="translate(-305.667 -186.056)"/><path class="au" d="M345.015,229.563l.561,1.957,4.355-17.776-.561-1.957Z" transform="translate(-301.182 -184.375)"/><path class="au" d="M343.019,235.255l.491,2.208,4.915-15.561-.492-2.208Z" transform="translate(-297.19 -182.439)"/><path class="au" d="M341.31,241.612l.414,2.425,5.4-13.1-.414-2.425Z" transform="translate(-293.758 -180.28)"/><path class="au" d="M339.915,248.533l.329,2.6,5.791-10.423-.329-2.6Z" transform="translate(-290.938 -177.932)"/><path class="au" d="M338.858,255.906l.24,2.738,6.094-7.584-.24-2.738Z" transform="translate(-288.778 -175.432)"/><path class="au" d="M338.154,263.613l.146,2.83,6.3-4.622-.146-2.83Z" transform="translate(-287.31 -172.821)"/><path class="au" d="M337.816,271.533l.05,2.877,6.4-1.587-.05-2.877Z" transform="translate(-286.558 -170.139)"/></g><path class="au" d="M337.8,274.625l-.013,2.883,6.416.418.013-2.883Z" transform="translate(-286.463 -166.215)"/><path class="au" d="M338.091,283.215l-.11,2.854,6.351,3.469.109-2.854Z" transform="translate(-286.937 -164.112)"/><path class="au" d="M338.751,291.667l-.2,2.779,6.184,6.464.2-2.779Z" transform="translate(-288.133 -162.043)"/><path class="au" d="M339.766,299.847l-.3,2.659,5.918,9.356.3-2.659Z" transform="translate(-290.033 -160.041)"/><path class="au" d="M341.121,307.623l-.382,2.5,5.558,12.1.382-2.5Z" transform="translate(-292.606 -158.138)"/><path class="au" d="M342.793,314.871l-.463,2.3,5.108,14.647.463-2.3Z" transform="translate(-295.81 -156.363)"/><path class="au" d="M344.756,321.475l-.536,2.057,4.578,16.962.536-2.057Z" transform="translate(-299.595 -154.747)"/><path class="au" d="M346.979,327.33l-.6,1.785,3.973,19,.6-1.786Z" transform="translate(-303.9 -153.314)"/><path class="au" d="M349.425,332.342l-.655,1.486,3.306,20.744.655-1.486Z" transform="translate(-308.656 -152.087)"/><path class="au" d="M352.057,336.431l-.7,1.162,2.585,22.152.7-1.162Z" transform="translate(-313.787 -151.086)"/><path class="au" d="M354.831,339.531l-.733.819,1.824,23.205.733-.819Z" transform="translate(-319.211 -150.327)"/><path class="au" d="M357.7,341.592l-.755.464,1.032,23.888.755-.464Z" transform="translate(-324.842 -149.823)"/><path class="au" d="M360.629,342.583l-.764.1.225,24.188.764-.1Z" transform="translate(-330.589 -149.58)"/><path class="au" d="M363.675,342.539l-.761-.263-.586,24.1.761.263Z" transform="translate(-336.475 -149.656)"/><path class="au" d="M366.722,341.428l-.746-.624-1.388,23.631.746.624Z" transform="translate(-342.336 -150.016)"/><path class="au" d="M369.678,339.249l-.72-.974-2.167,22.781.719.974Z" transform="translate(-348.034 -150.635)"/><path class="au" d="M372.494,336.036l-.681-1.309L368.9,356.294l.681,1.309Z" transform="translate(-353.477 -151.503)"/><path class="au" d="M375.126,331.84l-.632-1.622-3.61,20.008.632,1.622Z" transform="translate(-358.578 -152.607)"/><path class="au" d="M377.533,326.73l-.573-1.91-4.251,18.13.573,1.91Z" transform="translate(-363.256 -153.928)"/><path class="au" d="M379.675,320.786l-.5-2.168-4.824,15.961.5,2.168Z" transform="translate(-367.437 -155.446)"/><path class="au" d="M381.518,314.1l-.428-2.39-5.319,13.538.428,2.39Z" transform="translate(-371.052 -157.136)"/><path class="au" d="M383.032,306.79l-.344-2.574-5.73,10.9.344,2.575Z" transform="translate(-374.045 -158.972)"/><path class="au" d="M384.194,298.962l-.255-2.718-6.048,8.083.255,2.718Z" transform="translate(-376.368 -160.923)"/><path class="au" d="M384.985,290.744l-.162-2.818-6.27,5.139.162,2.818Z" transform="translate(-377.982 -162.959)"/><path class="au" d="M385.392,282.268l-.067-2.872-6.392,2.114.067,2.872Z" transform="translate(-378.864 -165.047)"/><path class="au" d="M385.415,273.855l.03-2.881-6.412-.946-.03,2.881Z" transform="translate(-379.003 -167.34)"/><path class="au" d="M358.058,211.581l.76.326.725-24.048-.76-.326Z" transform="translate(-327.028 -187.533)"/><path class="au" d="M355.177,212.842l.743.685,1.524-23.511-.743-.685Z" transform="translate(-321.342 -187.092)"/><path class="au" d="M352.388,215.092l.714,1.033,2.3-22.6-.714-1.033Z" transform="translate(-315.829 -186.318)"/><path class="au" d="M349.737,218.293l.674,1.364,3.036-21.322-.674-1.364Z" transform="translate(-310.576 -185.222)"/><path class="au" d="M347.266,222.394l.622,1.674,3.725-19.707-.622-1.674Z" transform="translate(-305.667 -183.823)"/><path class="au" d="M345.015,227.33l.561,1.957,4.355-17.776-.561-1.957Z" transform="translate(-301.182 -182.142)"/><path class="au" d="M343.019,233.022l.491,2.208,4.915-15.561-.492-2.208Z" transform="translate(-297.19 -180.207)"/><path class="au" d="M341.31,239.38l.414,2.425,5.4-13.1-.414-2.425Z" transform="translate(-293.758 -178.048)"/><path class="au" d="M339.915,246.3l.329,2.6,5.791-10.424-.329-2.6Z" transform="translate(-290.938 -175.699)"/><path class="au" d="M338.858,253.673l.24,2.738,6.094-7.584-.24-2.738Z" transform="translate(-288.778 -173.199)"/><path class="au" d="M338.154,261.381l.146,2.83,6.3-4.622-.146-2.83Z" transform="translate(-287.31 -170.588)"/><path class="au" d="M337.816,269.3l.05,2.877,6.4-1.587-.05-2.877Z" transform="translate(-286.558 -167.906)"/></g><g transform="translate(47.263 153.295)"><path class="au" d="M9.375,2.734V34.994l1.864-1.18,12.33-14.406ZM11.8,8.9l8.725,10.5L11.8,28.815Z" transform="translate(-2.054 -4.94)"/></g></g><path class="av" d="M348.4,169.861,232.3,294.106l-.354,17.373,145.9,128.2Z" transform="translate(-70.438 -108.361)"/><g class="d" transform="translate(219.915 205.239)"><ellipse class="aw" cx="24.677" cy="1.121" rx="24.677" ry="1.121" transform="translate(0 23.555)"/><path class="ax" d="M268.393,326.043c.438.438,8.605-7.019,18.242-16.656s17.094-17.8,16.656-18.242-8.605,7.019-18.242,16.656S267.954,325.6,268.393,326.043Z" transform="translate(-261.165 -283.917)"/><path class="ay" d="M268.393,291.145c-.438.438,7.019,8.605,16.656,18.242s17.8,17.094,18.242,16.656-7.019-8.605-16.656-18.242S268.831,290.706,268.393,291.145Z" transform="translate(-261.165 -283.917)"/><path class="az" d="M282.628,334.689c.619,0,1.122-11.049,1.122-24.678s-.5-24.676-1.122-24.676-1.122,11.047-1.122,24.676S282.009,334.689,282.628,334.689Z" transform="translate(-257.951 -285.335)"/><ellipse class="ba" cx="11.735" cy="11.735" rx="11.735" ry="11.735" transform="matrix(-0.988, -0.153, 0.153, -0.988, 34.481, 37.514)"/></g><g class="d" transform="translate(246.752 151.844)"><ellipse class="bb" cx="24.677" cy="1.121" rx="24.677" ry="1.121" transform="translate(0 23.556)"/><ellipse class="bc" cx="1.121" cy="24.677" rx="1.121" ry="24.677" transform="translate(8.02 42.919) rotate(-135)"/><ellipse class="bd" cx="24.677" cy="1.121" rx="24.677" ry="1.121" transform="translate(41.334 42.919) rotate(-135)"/><ellipse class="be" cx="1.121" cy="24.677" rx="1.121" ry="24.677" transform="translate(23.556)"/><ellipse class="bf" cx="11.735" cy="11.735" rx="11.735" ry="11.735" transform="matrix(-0.988, -0.157, 0.157, -0.988, 34.427, 37.554)"/></g><g class="d" transform="translate(282.73 307.192)"><g transform="translate(0 0)"><path class="bg" d="M212.119,387.286c0,.619,11.049,1.12,24.678,1.12s24.676-.5,24.676-1.12-11.047-1.122-24.676-1.122S212.119,386.666,212.119,387.286Z" transform="translate(-212.119 -362.608)"/><path class="bh" d="M217.929,407.949c.438.438,8.605-7.019,18.242-16.656s17.094-17.805,16.656-18.242-8.605,7.019-18.242,16.656S217.49,407.511,217.929,407.949Z" transform="translate(-210.7 -365.822)"/><path class="bi" d="M217.929,373.051c-.438.437,7.019,8.605,16.656,18.242s17.8,17.094,18.242,16.656-7.019-8.605-16.656-18.242S218.367,372.612,217.929,373.051Z" transform="translate(-210.7 -365.822)"/><path class="bj" d="M232.164,416.594c.619,0,1.122-11.047,1.122-24.676s-.5-24.678-1.122-24.678-1.122,11.049-1.122,24.678S231.544,416.594,232.164,416.594Z" transform="translate(-207.486 -367.24)"/></g><ellipse class="bk" cx="11.735" cy="11.735" rx="11.735" ry="11.735" transform="translate(12.943 12.39)"/></g><g class="bl" transform="translate(257.811 282.285)"><g transform="translate(0 0)"><ellipse class="bm" cx="24.677" cy="1.121" rx="24.677" ry="1.121" transform="translate(0 23.556)"/><ellipse class="bn" cx="1.121" cy="24.677" rx="1.121" ry="24.677" transform="translate(8.02 42.919) rotate(-135)"/><ellipse class="bo" cx="24.677" cy="1.121" rx="24.677" ry="1.121" transform="translate(41.334 42.919) rotate(-135)"/><ellipse class="bp" cx="1.121" cy="24.677" rx="1.121" ry="24.677" transform="translate(23.556)"/></g><ellipse class="bq" cx="11.735" cy="11.735" rx="11.735" ry="11.735" transform="translate(34.374 37.593) rotate(-170.755)"/></g></g></g></svg>